<svg xmlns="http://www.w3.org/2000/svg" viewBox="0 0 2000 2000">
  <!-- Background -->
  <rect width="2000" height="2000" fill="#F8F8F8"/>
  
  <!-- Abstract flowing waves -->
  <path d="M0 1400 C500 1300, 1500 1500, 2000 1400 
           L2000 2000 L0 2000 Z" 
        fill="#F0F0F0"/>
  
  <path d="M0 1500 C600 1400, 1400 1600, 2000 1500 
           L2000 2000 L0 2000 Z" 
        fill="#E8E8E8"/>
  
  <path d="M0 1600 C700 1500, 1300 1700, 2000 1600 
           L2000 2000 L0 2000 Z" 
        fill="#E0E0E0"/>
  
  <!-- Subtle diagonal lines -->
  <line x1="200" y1="200" x2="400" y2="400" 
        stroke="#D0D0D0" 
        stroke-width="2"/>
  <line x1="1600" y1="200" x2="1800" y2="400" 
        stroke="#D0D0D0" 
        stroke-width="2"/>
  
  <!-- Abstract geometric shapes -->
  <circle cx="300" cy="300" r="50" 
          fill="none" 
          stroke="#C0C0C0" 
          stroke-width="2"/>
  
  <circle cx="1700" cy="300" r="50" 
          fill="none" 
          stroke="#C0C0C0" 
          stroke-width="2"/>
  
  <!-- Placeholder text -->
  <text x="1000" y="1000" 
        font-family="Arial, sans-serif" 
        font-size="60" 
        fill="#A0A0A0" 
        text-anchor="middle">
    PLACEHOLDER
  </text>
  
  <!-- Decorative accents -->
  <rect x="960" y="1040" width="80" height="2" fill="#B0B0B0"/>
  <rect x="980" y="1060" width="40" height="2" fill="#B0B0B0"/>
</svg>
